<mxfile host="app.diagrams.net" modified="2023-07-04T07:34:51.926Z" agent="Mozilla/5.0 (Windows NT 10.0; Win64; x64; rv:109.0) Gecko/20100101 Firefox/114.0" etag="t7vfZtjjGdMHCGXZonnz" version="21.5.2" type="github">
  <diagram name="Page-1" id="9qswo_Go44PS3u6y543k">
    <mxGraphModel dx="1434" dy="739" grid="1" gridSize="10" guides="1" tooltips="1" connect="1" arrows="1" fold="1" page="1" pageScale="1" pageWidth="850" pageHeight="1100" math="0" shadow="0">
      <root>
        <mxCell id="0" />
        <mxCell id="1" parent="0" />
        <mxCell id="pNaCVz8n9rx6uCHdGMEY-1" value="" style="rounded=0;whiteSpace=wrap;html=1;fillColor=none;" vertex="1" parent="1">
          <mxGeometry x="105" y="180" width="640" height="400" as="geometry" />
        </mxCell>
        <mxCell id="pNaCVz8n9rx6uCHdGMEY-2" value="Item 01" style="rounded=1;whiteSpace=wrap;html=1;align=left;" vertex="1" parent="1">
          <mxGeometry x="160" y="250" width="520" height="60" as="geometry" />
        </mxCell>
        <mxCell id="pNaCVz8n9rx6uCHdGMEY-3" value="Bid" style="rounded=0;whiteSpace=wrap;html=1;" vertex="1" parent="1">
          <mxGeometry x="590" y="265" width="75" height="30" as="geometry" />
        </mxCell>
        <mxCell id="pNaCVz8n9rx6uCHdGMEY-4" value="Item 02" style="rounded=1;whiteSpace=wrap;html=1;align=left;" vertex="1" parent="1">
          <mxGeometry x="160" y="330" width="520" height="60" as="geometry" />
        </mxCell>
        <mxCell id="pNaCVz8n9rx6uCHdGMEY-5" value="Item 03" style="rounded=1;whiteSpace=wrap;html=1;align=left;" vertex="1" parent="1">
          <mxGeometry x="160" y="410" width="520" height="60" as="geometry" />
        </mxCell>
        <mxCell id="pNaCVz8n9rx6uCHdGMEY-6" value="Bid" style="rounded=0;whiteSpace=wrap;html=1;" vertex="1" parent="1">
          <mxGeometry x="590" y="345" width="75" height="30" as="geometry" />
        </mxCell>
        <mxCell id="pNaCVz8n9rx6uCHdGMEY-7" value="Bid" style="rounded=0;whiteSpace=wrap;html=1;" vertex="1" parent="1">
          <mxGeometry x="590" y="425" width="75" height="30" as="geometry" />
        </mxCell>
        <mxCell id="pNaCVz8n9rx6uCHdGMEY-9" value="Item details" style="rounded=0;whiteSpace=wrap;html=1;dashed=1;" vertex="1" parent="1">
          <mxGeometry x="390" y="260" width="130" height="40" as="geometry" />
        </mxCell>
        <mxCell id="pNaCVz8n9rx6uCHdGMEY-10" value="Item details" style="rounded=0;whiteSpace=wrap;html=1;dashed=1;" vertex="1" parent="1">
          <mxGeometry x="390" y="340" width="130" height="40" as="geometry" />
        </mxCell>
        <mxCell id="pNaCVz8n9rx6uCHdGMEY-11" value="Item details" style="rounded=0;whiteSpace=wrap;html=1;dashed=1;" vertex="1" parent="1">
          <mxGeometry x="390" y="420" width="130" height="40" as="geometry" />
        </mxCell>
        <mxCell id="pNaCVz8n9rx6uCHdGMEY-12" value="Items list" style="rounded=0;whiteSpace=wrap;html=1;fillColor=none;strokeColor=none;fontSize=20;align=left;" vertex="1" parent="1">
          <mxGeometry x="120" y="190" width="190" height="60" as="geometry" />
        </mxCell>
      </root>
    </mxGraphModel>
  </diagram>
</mxfile>
